<svg xmlns="http://www.w3.org/2000/svg" data-name="Layer 1" viewBox="0 0 128 160" x="0px" y="0px"><title>Miscellaneous 28 SOLID</title><path d="M27.32,51.88A14.84,14.84,0,0,0,35,54a15.14,15.14,0,0,0,3.71-.46,15,15,0,0,0,7.7-4.77,2,2,0,0,0,0-2.59,2,2,0,0,0-1.1-.67A14.44,14.44,0,0,1,41.76,44c2.7.11,5.69-.32,7.55-2.26a2,2,0,0,0,.62-1.26,15.13,15.13,0,0,0-.39-5.2A15,15,0,1,0,27.32,51.88Zm5-23.54a11,11,0,0,1,13.36,8A11.27,11.27,0,0,1,46,39.36c-2,1.27-6.68.54-8.83-.07a2,2,0,0,0-2.43,2.6c1.16,3.22,4,5.18,6.31,6.29a10.74,10.74,0,0,1-3.35,1.48,11,11,0,0,1-5.4-21.32Z"/><path d="M78,39A15,15,0,1,0,93,24,15,15,0,0,0,78,39ZM93,28A11,11,0,1,1,82,39,11,11,0,0,1,93,28Z"/><path d="M51,22l-1.81,4.22A2,2,0,0,0,52,28.72l11-6.6H80a4,4,0,0,0,4-4v-14a4,4,0,0,0-4-4H52a4,4,0,0,0-4,4v14A4,4,0,0,0,51,22Z"/><path d="M121.72,47a6.44,6.44,0,0,0-6.2,5.23l-2,6.49A13.26,13.26,0,0,1,116,66.41V105a6,6,0,0,1-6,6H94.41a3.61,3.61,0,0,0,.12.38A6.15,6.15,0,0,0,100,115h12v9h-4a2,2,0,0,0,0,4h12a2,2,0,0,0,0-4h-4v-9h10a2,2,0,0,0,2-2V53.28A6.29,6.29,0,0,0,121.72,47Z"/><path d="M112,105V66.41a9.53,9.53,0,0,0-2.89-6.75,9.35,9.35,0,0,0-6.4-2.66,26.39,26.39,0,0,0-18,7,27.08,27.08,0,0,0-6.17,8.4c-.35.75-3.06,9.59-2.52,9.59H51.94c.08,0-1.64-6.62-1.8-7.15a23.46,23.46,0,0,0-5.93-9.91A26.4,26.4,0,0,0,25.29,57,9.6,9.6,0,0,0,16,66.41V105a2,2,0,0,0,2,2H41.83s.17.5.47,1.34l5.81,16.57a2.56,2.56,0,0,0,.13.29,1.74,1.74,0,0,0,1.11.93l.07,0a2.25,2.25,0,0,0,2.21-.74,2.48,2.48,0,0,0,.18-.31,1.65,1.65,0,0,0,.1-.27,2.32,2.32,0,0,0,.08-.36,1.62,1.62,0,0,0,0-.22,2.27,2.27,0,0,0,0-.26,2.58,2.58,0,0,0-.09-.4l-6.75-19.25A2,2,0,0,0,43.25,103H20V66.41A5.42,5.42,0,0,1,25.29,61a22.47,22.47,0,0,1,16.08,6.75A24.08,24.08,0,0,1,47.93,82H40a4,4,0,0,0-4,4v6a4,4,0,0,0,4,4H56v28a4,4,0,0,0,4,4h6a4,4,0,0,0,4-4V96H86a4,4,0,0,0,4-4V86a4,4,0,0,0-4-4H80.07l0-.22a23.32,23.32,0,0,1,6.53-14A22.47,22.47,0,0,1,102.71,61,5.49,5.49,0,0,1,108,66.41V103H84.75a2,2,0,0,0-1.89,1.34l-6.57,18.75a4.55,4.55,0,0,0-.26.81,1.85,1.85,0,0,0,1.2,2.06,1.79,1.79,0,0,0,2.35-.5c.12-.16,6.58-18.46,6.58-18.46H110A2,2,0,0,0,112,105Z"/><path d="M12,105V66.41a13.2,13.2,0,0,1,2.49-7.69c-1-3.17-2-6.47-2-6.49C11.58,49.31,9.55,47,6.28,47A6.29,6.29,0,0,0,0,53.28V113a2,2,0,0,0,2,2H12v9H8c-2.56,0-2.61,4,0,4H20c2.5,0,2.62-4,0-4H16v-9H28a6.05,6.05,0,0,0,5.64-4H18A6,6,0,0,1,12,105Z"/><text x="0" y="143" fill="#000000" font-size="5px" font-weight="bold" font-family="'Helvetica Neue', Helvetica, Arial-Unicode, Arial, Sans-serif"></text><text x="0" y="148" fill="#000000" font-size="5px" font-weight="bold" font-family="'Helvetica Neue', Helvetica, Arial-Unicode, Arial, Sans-serif"></text></svg>