<svg xmlns="http://www.w3.org/2000/svg" xmlns:xlink="http://www.w3.org/1999/xlink" version="1.1" x="0px" y="0px" viewBox="0 0 101.425 310.4325" style="enable-background:new 0 0 101.425 248.346;" xml:space="preserve"><g>
<path d= "M55.087,55.86c10.68-1.753,18.83-11.021,18.83-22.197c0-1.096-0.083-2.171-0.233-3.225H29.15   c-0.151,1.054-0.233,2.129-0.233,3.225c0,11.176,8.15,20.444,18.83,22.197c1.195,0.196,2.42,0.303,3.67,0.303   S53.892,56.057,55.087,55.86z" fill="#666666"/>
<path d="M27.884,22.403c-1.666,0-3.016,1.352-3.016,3.019s1.35,3.017,3.016,3.017h0.402h46.261h0.401   c1.668,0,3.017-1.35,3.017-3.017s-1.349-3.019-3.017-3.019h-0.416c-0.018-0.674-0.061-1.342-0.135-2   C73.629,13.551,69.87,7.604,64.452,3.9v1.847c0,1.318-1.068,2.389-2.387,2.389c-1.318,0-2.389-1.07-2.389-2.389V1.402   C57.821,0.692,55.854,0.21,53.804,0v5.747c0,1.318-1.068,2.389-2.387,2.389c-1.32,0-2.389-1.07-2.389-2.389V0   c-2.05,0.211-4.018,0.693-5.873,1.403v4.344c0,1.318-1.069,2.389-2.389,2.389c-1.318,0-2.387-1.07-2.387-2.389V3.902   c-5.417,3.703-9.175,9.649-9.943,16.501c-0.074,0.658-0.118,1.326-0.135,2H27.884z" fill="#666666"/>
<path d="M20,212.89v-48c0-1.317-0.646-2.477-1.628-3.205c-0.236-0.175-0.486-0.329-0.758-0.45   c-0.495-0.219-1.039-0.345-1.614-0.345h-3.167v-3.92c3.179-1.208,5.351-4.372,5.141-7.945c-0.391-6.652-0.566-12.709-0.566-18.223   c-0.033-24.217,3.496-37.819,6.965-44.92v33.161v18.939v98c0,6.83,5.537,12.363,12.363,12.363c6.828,0,12.365-5.533,12.365-12.363   v-90.271h4.635v90.271c0,6.83,5.537,12.363,12.363,12.363c6.828,0,12.365-5.533,12.365-12.363v-98v-18.939V85.927   c0.592,1.216,1.189,2.611,1.779,4.238c2.819,7.813,5.191,20.631,5.182,40.639c0,5.514-0.178,11.57-0.566,18.223   c-0.257,4.41,3.11,8.195,7.521,8.451c0.159,0.01,0.317,0.014,0.473,0.014c4.205,0,7.731-3.281,7.979-7.533   c0.405-6.933,0.594-13.299,0.594-19.154c-0.041-30.184-4.862-46.887-11.436-56.933c-3.284-4.985-7.127-8.183-10.679-9.954   c-3.548-1.79-6.661-2.145-8.436-2.139c-0.638,0-1.116,0.043-1.415,0.08c-0.007,0-0.014,0.002-0.02,0.003H33.388   c-0.006-0.001-0.012-0.002-0.017-0.003c-0.3-0.037-0.778-0.081-1.414-0.081c-1.775-0.004-4.89,0.351-8.437,2.14   c-5.378,2.666-11.177,8.5-15.235,18.84c-4.105,10.379-6.864,25.386-6.877,48.045c0,5.855,0.189,12.225,0.596,19.159   c0.19,3.251,2.301,5.931,5.164,7.013v3.916H4c-0.578,0-1.124,0.128-1.62,0.349C0.979,161.86,0,163.259,0,164.89v48   c0,2.209,1.791,4,4,4h12c0.892,0,1.707-0.302,2.372-0.795C19.354,215.366,20,214.207,20,212.89z M47.616,67.867h3.801h3.798   l1.901,7.5l-0.289,0.456c-1.566,1.306-3.484,1.96-5.412,1.962c-1.928-0.002-3.844-0.655-5.409-1.959l-0.291-0.459L47.616,67.867z    M47.389,80.046c1.297,0.486,2.662,0.74,4.026,0.739h0.002c0,0,0.003,0,0.005,0c1.363,0,2.725-0.254,4.021-0.74l5.474,40.322   l-9.5,12l-9.5-12L47.389,80.046z" fill="#666666"/></g><text x="0" y="263.346" fill="#000000" font-size="5px" font-weight="bold" font-family="'Helvetica Neue', Helvetica, Arial-Unicode, Arial, Sans-serif"></text><text x="0" y="268.346" fill="#000000" font-size="5px" font-weight="bold" font-family="'Helvetica Neue', Helvetica, Arial-Unicode, Arial, Sans-serif"></text></svg>