<svg xmlns="http://www.w3.org/2000/svg" xmlns:xlink="http://www.w3.org/1999/xlink" version="1.1" x="0px" y="0px" viewBox="0 0 100 125" enable-background="new 0 0 100 100" xml:space="preserve"><g><g><path d="M83.457,27.063l9.223-8.974c3.15-3.15,3.149-8.277-0.001-11.426c-1.525-1.527-3.555-2.368-5.713-2.368    s-4.188,0.841-5.733,2.387l-8.954,9.203L43.186,3.167c-0.753-0.331-1.633-0.165-2.215,0.418l-5.92,5.92    c-0.399,0.399-0.61,0.947-0.584,1.511c0.027,0.563,0.291,1.089,0.727,1.447l22.465,18.5l-1.482,1.574    c-1.058-0.634-2.138-1.221-3.248-1.735c-0.606-0.281-1.219-0.542-1.836-0.787c-0.218-0.085-0.438-0.166-0.656-0.247    c-0.549-0.204-1.102-0.394-1.657-0.57c-0.18-0.057-0.358-0.116-0.539-0.169c-1.502-0.447-3.03-0.789-4.581-1.026    c-0.166-0.025-0.333-0.046-0.5-0.069c-0.616-0.085-1.236-0.153-1.859-0.205c-0.198-0.017-0.396-0.036-0.595-0.049    c-0.776-0.051-1.557-0.086-2.343-0.086c-0.619,0-1.234,0.018-1.847,0.05c-0.287,0.015-0.571,0.044-0.857,0.065    c-0.315,0.025-0.633,0.045-0.946,0.078c-0.357,0.037-0.713,0.088-1.068,0.136c-0.235,0.032-0.471,0.061-0.704,0.098    c-0.385,0.06-0.766,0.132-1.147,0.205c-0.2,0.039-0.402,0.076-0.603,0.118c-0.389,0.082-0.776,0.173-1.162,0.269    c-0.19,0.047-0.381,0.095-0.57,0.145c-0.383,0.102-0.765,0.211-1.145,0.326c-0.19,0.058-0.381,0.118-0.57,0.179    c-0.372,0.12-0.743,0.244-1.111,0.376c-0.192,0.07-0.384,0.144-0.575,0.217c-0.364,0.138-0.728,0.278-1.087,0.429    c-0.167,0.07-0.331,0.146-0.497,0.219c-0.319,0.14-0.642,0.272-0.958,0.422c-0.025,0.012-0.047,0.031-0.072,0.044    c-7.166,3.427-12.979,9.241-16.406,16.408c-0.013,0.024-0.03,0.044-0.042,0.068c-0.146,0.308-0.274,0.622-0.411,0.933    c-0.078,0.176-0.158,0.35-0.233,0.527c-0.149,0.357-0.288,0.718-0.426,1.079c-0.073,0.193-0.148,0.386-0.219,0.581    c-0.133,0.369-0.257,0.74-0.377,1.113c-0.061,0.188-0.12,0.375-0.178,0.564c-0.116,0.383-0.226,0.767-0.328,1.154    c-0.049,0.185-0.096,0.37-0.142,0.556c-0.097,0.391-0.189,0.782-0.272,1.176c-0.041,0.194-0.076,0.391-0.114,0.586    c-0.074,0.386-0.146,0.772-0.208,1.161c-0.036,0.229-0.063,0.461-0.096,0.692c-0.049,0.359-0.1,0.717-0.137,1.078    c-0.033,0.312-0.053,0.628-0.078,0.942c-0.021,0.287-0.05,0.572-0.065,0.861c-0.032,0.611-0.05,1.227-0.05,1.846    s0.018,1.235,0.05,1.847c0.016,0.287,0.044,0.572,0.065,0.858c0.024,0.315,0.045,0.631,0.078,0.944    c0.037,0.36,0.088,0.717,0.137,1.075c0.031,0.233,0.06,0.466,0.096,0.698c0.061,0.386,0.134,0.77,0.207,1.153    c0.038,0.199,0.074,0.397,0.116,0.595c0.082,0.392,0.175,0.781,0.271,1.169c0.047,0.188,0.094,0.376,0.143,0.563    c0.103,0.385,0.212,0.768,0.328,1.15c0.057,0.189,0.117,0.378,0.178,0.566c0.12,0.373,0.244,0.745,0.377,1.114    c0.07,0.192,0.144,0.383,0.217,0.574c0.139,0.365,0.278,0.729,0.43,1.089c0.07,0.167,0.146,0.33,0.219,0.495    c0.14,0.32,0.272,0.642,0.423,0.959c0.012,0.025,0.03,0.046,0.044,0.071c3.426,7.166,9.239,12.979,16.405,16.406    c0.025,0.013,0.047,0.032,0.072,0.044c0.316,0.15,0.639,0.282,0.958,0.422c0.166,0.073,0.33,0.149,0.497,0.219    c0.359,0.151,0.723,0.291,1.087,0.429c0.191,0.073,0.383,0.147,0.575,0.217c0.368,0.132,0.739,0.256,1.111,0.376    c0.189,0.061,0.38,0.122,0.57,0.179c0.38,0.115,0.762,0.224,1.145,0.326c0.189,0.05,0.38,0.097,0.57,0.145    c0.386,0.096,0.773,0.187,1.162,0.269c0.2,0.042,0.402,0.079,0.603,0.118c0.382,0.073,0.763,0.145,1.147,0.205    c0.233,0.037,0.469,0.065,0.704,0.098c0.355,0.048,0.711,0.099,1.068,0.136c0.313,0.033,0.631,0.053,0.946,0.078    c0.286,0.021,0.57,0.05,0.857,0.065c0.612,0.032,1.228,0.05,1.847,0.05s1.234-0.018,1.847-0.05    c0.285-0.015,0.568-0.043,0.854-0.065c0.317-0.024,0.636-0.045,0.951-0.078c0.356-0.037,0.711-0.087,1.065-0.136    c0.235-0.032,0.473-0.061,0.706-0.098c0.384-0.06,0.765-0.132,1.146-0.205c0.201-0.039,0.403-0.076,0.604-0.118    c0.389-0.082,0.775-0.173,1.16-0.268c0.192-0.047,0.383-0.095,0.573-0.146c0.382-0.101,0.763-0.209,1.141-0.324    c0.193-0.059,0.386-0.12,0.577-0.182c0.37-0.119,0.738-0.242,1.105-0.375c0.194-0.07,0.388-0.146,0.581-0.219    c0.362-0.138,0.725-0.277,1.083-0.428c0.168-0.07,0.333-0.147,0.5-0.22c0.319-0.14,0.64-0.272,0.956-0.422    c0.025-0.012,0.047-0.031,0.071-0.043c7.166-3.427,12.979-9.241,16.405-16.406c0.014-0.025,0.032-0.046,0.044-0.071    c0.15-0.317,0.283-0.639,0.423-0.959c0.072-0.166,0.148-0.329,0.219-0.495c0.151-0.361,0.291-0.725,0.43-1.089    c0.073-0.191,0.146-0.381,0.217-0.574c0.133-0.369,0.257-0.741,0.377-1.114c0.061-0.188,0.121-0.376,0.178-0.566    c0.116-0.382,0.226-0.765,0.328-1.15c0.049-0.187,0.096-0.375,0.143-0.563c0.096-0.388,0.188-0.777,0.271-1.169    c0.042-0.197,0.078-0.396,0.116-0.595c0.073-0.383,0.146-0.767,0.207-1.153c0.036-0.231,0.064-0.465,0.096-0.698    c0.049-0.357,0.1-0.715,0.137-1.075c0.033-0.312,0.054-0.628,0.078-0.944c0.021-0.286,0.05-0.571,0.065-0.858    c0.032-0.612,0.05-1.227,0.05-1.847c0-0.847-0.041-1.686-0.101-2.521c-0.016-0.218-0.034-0.435-0.054-0.651    c-0.065-0.736-0.152-1.468-0.265-2.195c-0.017-0.106-0.026-0.214-0.044-0.32c-0.129-0.783-0.292-1.559-0.475-2.331    c-0.064-0.27-0.135-0.537-0.205-0.805c-0.141-0.538-0.297-1.071-0.465-1.602c-0.086-0.273-0.164-0.549-0.258-0.82    c-0.231-0.675-0.488-1.344-0.764-2.008c-0.139-0.335-0.29-0.665-0.439-0.996c-0.091-0.2-0.171-0.403-0.266-0.602    c-0.029-0.061-0.068-0.113-0.103-0.17c-0.73-1.514-1.573-2.979-2.528-4.389l1.278-1.205l18.5,22.465    c0.358,0.435,0.884,0.699,1.447,0.726c0.559,0.024,1.111-0.185,1.511-0.583l5.92-5.92c0.582-0.582,0.748-1.461,0.419-2.215    L83.457,27.063z M10.111,74.318c-0.045-0.107-0.088-0.215-0.132-0.323c-0.152-0.368-0.301-0.737-0.439-1.112    c-0.024-0.068-0.047-0.136-0.071-0.204c-0.15-0.417-0.295-0.836-0.428-1.262c0-0.001-0.001-0.002-0.001-0.004    c-0.708-2.271-1.15-4.656-1.31-7.117h10.766c0.064,4.242,0.334,8.375,0.8,12.344c-3.194-0.54-6.239-1.208-9.042-2.01    C10.207,74.526,10.156,74.423,10.111,74.318z M7.73,60.297c0.189-2.936,0.789-5.762,1.75-8.418c0.02-0.053,0.037-0.107,0.057-0.16    c0.143-0.387,0.296-0.77,0.454-1.149c0.039-0.095,0.076-0.19,0.116-0.284c0.047-0.109,0.099-0.215,0.146-0.324    c2.807-0.804,5.84-1.478,9.043-2.02c-0.467,3.972-0.736,8.109-0.801,12.355H7.73z M21.223,36.834    c-0.527,2.239-0.982,4.565-1.36,6.971c-2.415,0.379-4.74,0.832-6.964,1.354C15.112,41.879,17.943,39.049,21.223,36.834z     M12.898,79.435c2.237,0.527,4.561,0.981,6.965,1.36c0.378,2.404,0.832,4.728,1.359,6.965    C17.943,85.545,15.112,82.714,12.898,79.435z M50.383,90.546c-0.108,0.046-0.217,0.088-0.325,0.133    c-0.367,0.151-0.734,0.3-1.108,0.438c-0.07,0.026-0.142,0.049-0.212,0.074c-0.414,0.149-0.831,0.293-1.254,0.425    c-0.005,0.001-0.01,0.003-0.016,0.004c-2.268,0.706-4.649,1.147-7.106,1.307V82.161c4.245-0.065,8.383-0.334,12.354-0.8    c-0.543,3.202-1.216,6.236-2.021,9.044C50.591,90.451,50.488,90.501,50.383,90.546z M36.361,92.928    c-2.935-0.19-5.76-0.789-8.414-1.749c-0.055-0.02-0.11-0.038-0.164-0.058c-0.388-0.143-0.77-0.296-1.149-0.454    c-0.095-0.039-0.188-0.076-0.282-0.116c-0.109-0.046-0.216-0.099-0.324-0.146c-0.803-2.803-1.471-5.849-2.011-9.043    c3.969,0.466,8.103,0.735,12.345,0.799V92.928z M55.497,87.761c0.522-2.226,0.976-4.551,1.354-6.966    c2.406-0.378,4.733-0.833,6.973-1.361C61.609,82.715,58.778,85.546,55.497,87.761z M66.154,49.245    c0.147,0.314,0.282,0.632,0.418,0.949c0.12,0.278,0.239,0.558,0.351,0.839c0.126,0.318,0.246,0.638,0.36,0.959    c0.115,0.322,0.222,0.647,0.326,0.973c0.09,0.281,0.184,0.562,0.266,0.846c0.17,0.594,0.325,1.192,0.46,1.797    c0.038,0.173,0.066,0.349,0.102,0.523c0.099,0.484,0.188,0.971,0.264,1.461c0.034,0.219,0.062,0.439,0.091,0.66    c0.062,0.472,0.112,0.947,0.152,1.424c0.018,0.201,0.037,0.401,0.05,0.603c0,0.006,0,0.012,0.001,0.018H58.816    c-1.104,0-2,0.896-2,2s0.896,2,2,2h10.176c-0.189,2.924-0.785,5.738-1.739,8.384c-0.024,0.067-0.046,0.135-0.07,0.202    c-0.139,0.375-0.287,0.745-0.439,1.112c-0.044,0.107-0.087,0.215-0.132,0.323c-0.045,0.105-0.096,0.208-0.143,0.313    c-7.503,2.148-16.671,3.376-26.107,3.53v-9.386c0-1.104-0.896-2-2-2s-2,0.896-2,2v9.386c-4.428-0.072-8.797-0.371-12.961-0.904    c-0.533-4.164-0.832-8.533-0.904-12.96h10.113c1.104,0,2-0.896,2-2s-0.896-2-2-2H22.496c0.154-9.437,1.383-18.604,3.531-26.108    c0.108-0.048,0.215-0.1,0.324-0.146c0.094-0.04,0.188-0.077,0.282-0.116c0.38-0.158,0.762-0.312,1.149-0.454    c0.054-0.02,0.109-0.038,0.164-0.058c2.654-0.96,5.479-1.559,8.414-1.749v9.26c0,1.104,0.896,2,2,2s2-0.896,2-2v-9.262    c0.119,0.008,0.237,0.021,0.356,0.029c0.468,0.036,0.936,0.078,1.4,0.134c0.172,0.021,0.343,0.047,0.515,0.071    c0.454,0.063,0.906,0.135,1.355,0.218c0.17,0.032,0.34,0.065,0.509,0.1c0.448,0.091,0.894,0.193,1.336,0.304    c0.168,0.042,0.336,0.083,0.503,0.127c0.439,0.118,0.876,0.25,1.311,0.388c0.165,0.052,0.33,0.1,0.494,0.155    c0.449,0.151,0.893,0.318,1.334,0.49c0.142,0.055,0.285,0.103,0.426,0.16c1.188,0.482,2.349,1.039,3.474,1.671l-1.101,1.168    c-0.001,0.001-0.002,0.002-0.003,0.003l-6.294,6.682c-0.002,0.001-0.004,0.002-0.005,0.004L41.2,48.435l-10.015-4.518    c-0.759-0.342-1.65-0.178-2.236,0.409l-2.885,2.884c-0.398,0.399-0.61,0.947-0.584,1.511c0.027,0.563,0.291,1.089,0.727,1.448    L38.802,60.54l10.373,12.595c0.358,0.436,0.885,0.699,1.447,0.726c0.032,0.001,0.064,0.002,0.097,0.002    c0.074,0,0.146-0.014,0.219-0.021c0.042-0.005,0.084-0.005,0.125-0.012c0.103-0.018,0.201-0.048,0.299-0.082    c0.03-0.01,0.061-0.016,0.09-0.027c0.099-0.039,0.191-0.09,0.283-0.144c0.026-0.015,0.055-0.026,0.08-0.042    c0.113-0.075,0.221-0.16,0.318-0.257l2.883-2.883c0.146-0.147,0.268-0.313,0.36-0.491c0.185-0.356,0.259-0.761,0.212-1.159    c-0.023-0.199-0.078-0.397-0.163-0.587l-4.519-10.015l6.188-5.828c0.001-0.001,0.002-0.002,0.003-0.004l7.067-6.657    C64.914,46.81,65.572,48.012,66.154,49.245z M88.565,59.905L70.106,37.49c-0.352-0.427-0.865-0.689-1.418-0.725    c-0.546-0.034-1.094,0.161-1.497,0.54l-4.088,3.851l0,0L47.125,56.208c-0.155,0.146-0.283,0.313-0.382,0.494    c-0.198,0.36-0.28,0.774-0.235,1.183c0.023,0.205,0.077,0.408,0.165,0.603l4.537,10.056l-0.348,0.348l-9.096-11.043    c-0.082-0.099-0.173-0.19-0.272-0.272l-11.043-9.094l0.349-0.35l10.056,4.537c0.637,0.288,1.355,0.202,1.92-0.174    c0.125-0.083,0.252-0.165,0.358-0.278l14.838-15.75c0.002-0.002,0.003-0.004,0.005-0.006l4.06-4.31    c0.379-0.403,0.575-0.945,0.54-1.498c-0.035-0.552-0.298-1.065-0.725-1.417L39.437,10.777l3.397-3.397l29.111,12.725    c0.764,0.335,1.653,0.159,2.234-0.438l9.9-10.175c0.771-0.771,1.796-1.196,2.886-1.196s2.113,0.424,2.884,1.196    c1.591,1.591,1.592,4.179,0.021,5.75l-10.195,9.92c-0.598,0.581-0.771,1.471-0.438,2.235l12.726,29.111L88.565,59.905z"/></g></g><text x="0" y="115" fill="#000000" font-size="5px" font-weight="bold" font-family="'Helvetica Neue', Helvetica, Arial-Unicode, Arial, Sans-serif"></text><text x="0" y="120" fill="#000000" font-size="5px" font-weight="bold" font-family="'Helvetica Neue', Helvetica, Arial-Unicode, Arial, Sans-serif"></text></svg>