<svg xmlns="http://www.w3.org/2000/svg" xmlns:xlink="http://www.w3.org/1999/xlink" version="1.1" x="0px" y="0px" viewBox="0 0 100 125" style="enable-background:new 0 0 100 100;" xml:space="preserve"><g>
<path d=" fill="#666666" M14.16,53.33h48.59c0.98,0,1.78-0.82,1.78-1.8c0-0.98-0.8-1.8-1.78-1.8H14.16c-0.08,0-0.16-0.07-0.16-0.16V15.48   c0-0.08,0.07-0.15,0.16-0.15h48.59c0.98,0,1.78-0.82,1.78-1.8s-0.8-1.8-1.78-1.8H45.57c0-0.93-0.8-1.73-1.78-1.73h-8.3   c-0.98,0-1.78,0.8-1.78,1.73H14.16c-2.05,0-3.76,1.7-3.76,3.75v34.09C10.4,51.63,12.11,53.33,14.16,53.33z"/><ellipse transform="matrix(0.1891 -0.982 0.982 0.1891 47.26 87.5548)" cx="76.64" cy="15.16" rx="5.16" ry="5.16"/><path d="M72.85,61.49c1.5,0,2.75-1.23,2.75-2.73V43.42c0-0.32,0.26-0.57,0.59-0.54c0.28,0.03,0.48,0.28,0.48,0.56v15.31   c0,1.5,1.23,2.73,2.73,2.73c1.5,0,2.73-1.23,2.73-2.73V36.94l1.4,3.88c0.51,1.41,2.04,2.11,3.45,1.58h0   c1.41-0.4,2.14-2.02,1.63-3.43l-5.84-15.95c-0.42-1.14-1.5-1.88-2.71-1.88l-1.25,0.01l-2.16,2.17l-2.17-2.17l-2.81,0   c-1.03,0-2.05,0.09-3.06,0.27L55.7,23.67c-1.48,0.26-2.46,1.8-2.2,3.13h0c0.26,1.73,1.67,2.48,3.15,2.22l13.49-2.36v32.09   C70.13,60.26,71.35,61.48,72.85,61.49z"/><polygon points="70.2,72.98 70.21,72.98 70.21,72.98  "/><polygon points="78.18,72.98 78.17,72.98 78.17,72.98  "/>
<path d="M45.86,46.13c0.14,0.02,0.28,0.04,0.42,0.04c1.17,0,2.16-0.83,2.36-1.98c0.03-0.17,0.04-0.35,0.03-0.53l3.88-2.72   c0.16,0.07,0.33,0.12,0.5,0.15c0.14,0.02,0.28,0.04,0.42,0.04h0c1.17,0,2.16-0.83,2.36-1.98c0.23-1.3-0.64-2.55-1.95-2.78   c-0.14-0.02-0.28-0.04-0.42-0.04c-1.17,0-2.16,0.83-2.36,1.98c-0.05,0.26-0.05,0.52-0.01,0.78l-3.67,2.57   c-0.23-0.13-0.48-0.21-0.74-0.26c-0.3-0.05-0.62-0.05-0.91,0.01l-5.97-8.53c0.04-0.12,0.08-0.25,0.1-0.37   c0.23-1.3-0.64-2.55-1.95-2.78c-0.14-0.02-0.28-0.04-0.42-0.04c-1.17,0-2.16,0.83-2.36,1.98c-0.04,0.2-0.04,0.41-0.03,0.61   l-4.27,2.99c-0.25-0.15-0.53-0.25-0.82-0.31c-0.25-0.04-0.51-0.05-0.77-0.01L21.05,23.2c0.09-0.19,0.16-0.4,0.19-0.61   c0.23-1.3-0.64-2.55-1.95-2.78c-0.14-0.02-0.28-0.04-0.42-0.04c-1.17,0-2.16,0.83-2.36,1.98c-0.23,1.3,0.64,2.55,1.95,2.78   c0.22,0.04,0.45,0.05,0.67,0.02l8.31,11.86c-0.07,0.17-0.12,0.34-0.15,0.52c-0.23,1.3,0.64,2.55,1.95,2.78   c0.14,0.02,0.28,0.04,0.42,0.04c1.17,0,2.16-0.83,2.36-1.98c0.02-0.14,0.04-0.28,0.03-0.42l4.42-3.1c0.21,0.1,0.43,0.18,0.66,0.22   c0.3,0.05,0.61,0.05,0.91-0.01l5.98,8.53c-0.04,0.12-0.07,0.24-0.1,0.37C43.69,44.66,44.56,45.9,45.86,46.13z" fill="#666666"/>
<path d="M64.25,74.67h-8.38c-2.9,0-5.21,2.34-5.21,5.24v5.31c0,1.22,0.87,2.28,2.09,2.4c0.52,0.05,0.98-0.07,1.38-0.31V90H66v-2.68   c0.4,0.24,0.86,0.36,1.38,0.31c1.22-0.12,2.09-1.18,2.09-2.4v-5.31C69.47,77.01,67.15,74.67,64.25,74.67z"/><ellipse transform="matrix(0.9701 -0.2425 0.2425 0.9701 -14.7788 16.6084)" cx="60.07" cy="68.33" rx="5.01" ry="5.01"/>
<path d="M84.39,74.67h-8.38c-2.9,0-5.21,2.34-5.21,5.24v5.31c0,1.22,0.87,2.28,2.09,2.4c0.52,0.05,0.98-0.07,1.38-0.31V90h11.87   v-2.68c0.4,0.24,0.86,0.36,1.38,0.31c1.22-0.12,2.09-1.18,2.09-2.4v-5.31C89.6,77.01,87.29,74.67,84.39,74.67z"/><ellipse transform="matrix(0.0384 -0.9993 0.9993 0.0384 8.8432 145.8474)" cx="80.2" cy="68.33" rx="5.01" ry="5.01"/>
<path d="M44.12,74.67h-8.38c-2.9,0-5.21,2.34-5.21,5.24v5.31c0,1.22,0.87,2.28,2.09,2.4c0.52,0.05,0.98-0.07,1.38-0.31V90h11.87   v-2.68c0.4,0.24,0.86,0.36,1.38,0.31c1.22-0.12,2.09-1.18,2.09-2.4v-5.31C49.33,77.01,47.02,74.67,44.12,74.67z"/><circle cx="39.93" cy="68.33" r="5.01"/>
<path d="M23.99,74.67h-8.38c-2.9,0-5.21,2.34-5.21,5.24v5.31c0,1.22,0.87,2.28,2.09,2.4c0.52,0.05,0.98-0.07,1.38-0.31V90h11.87   v-2.68c0.4,0.24,0.86,0.36,1.38,0.31c1.22-0.12,2.09-1.18,2.09-2.4v-5.31C29.2,77.01,26.89,74.67,23.99,74.67z"/><ellipse transform="matrix(0.9994 -0.0333 0.0333 0.9994 -2.2629 0.6968)" cx="19.8" cy="68.33" rx="5.01" ry="5.01"/></g><text x="0" y="115" fill="#000000" font-size="5px" font-weight="bold" font-family="'Helvetica Neue', Helvetica, Arial-Unicode, Arial, Sans-serif"></text><text x="0" y="120" fill="#000000" font-size="5px" font-weight="bold" font-family="'Helvetica Neue', Helvetica, Arial-Unicode, Arial, Sans-serif"></text></svg>