<svg xmlns="http://www.w3.org/2000/svg" xmlns:xlink="http://www.w3.org/1999/xlink" version="1.1" x="0px" y="0px" viewBox="0 0 64 80" style="enable-background:new 0 0 64 64;" xml:space="preserve"><g><path d="M33,21.08V17h-2v4h-6v5c0,3.859,3.14,7,7,7c2.757,0,5,2.243,5,5v3h-5c-2.757,0-5-2.243-5-5v-3h-2v3   c0,3.519,2.613,6.432,6,6.92V47h2v-4h6v-5c0-3.859-3.14-7-7-7c-2.757,0-5-2.243-5-5v-3h5c2.757,0,5,2.243,5,5v3h2v-3   C39,24.481,36.387,21.568,33,21.08z"/><path d="M59.034,13.631L60.087,1H43.913l0.538,6.458c-0.722,0.007-1.441-0.124-2.116-0.403C40.309,6.217,39,4.259,39,2V1H26   l-1,0.066v1c0,2.193-1.309,4.151-3.335,4.989c-2.024,0.837-4.332,0.378-5.932-1.223l-0.707-0.699l-9.189,9.188l-0.66,0.754   l0.707,0.707c1.549,1.549,2.009,3.858,1.172,5.882C6.217,23.69,4.259,25,2,25H1v15.343c0,3.758,1.405,7.3,3.966,10.026L3.913,63   h16.174l-0.538-6.458c0.723-0.007,1.442,0.123,2.116,0.402C23.691,57.782,25,59.74,25,62v1h13l1-0.066v-1   c0-2.193,1.309-4.151,3.335-4.989c2.023-0.836,4.332-0.378,5.932,1.223l0.707,0.699l9.189-9.188l0.66-0.754l-0.707-0.707   c-1.549-1.549-2.009-3.858-1.172-5.882C57.783,40.31,59.741,39,62,39h1V23.657C63,19.899,61.595,16.357,59.034,13.631z M57.913,3   L57.08,13H46.92L46.087,3H57.913z M43,33c0.732,0,1.41-0.212,2-0.557L45,36c0,1.654,1.346,3,3,3c0.395,0,0.77-0.081,1.116-0.22   c0.262,0.967,0.991,1.734,1.934,2.051C47.639,48.161,40.155,53,32,53c-4.348,0-8.468-1.314-11.996-3.781   C21.945,46.679,23,43.593,23,40.343V32c0-1.654-1.346-3-3-3c-0.352,0-0.686,0.072-1,0.184V28c0-1.654-1.346-3-3-3   c-0.395,0-0.77,0.081-1.116,0.22c-0.262-0.967-0.991-1.734-1.934-2.051C16.362,15.839,23.846,11,32,11   c4.348,0,8.468,1.314,11.996,3.781C42.055,17.321,41,20.407,41,23.657V31C41,32.103,41.897,33,43,33z M8.904,22.429   c1.02-2.466,0.635-5.24-0.992-7.354l7.159-7.158c2.082,1.616,4.875,2.016,7.358,0.986C24.9,7.882,26.592,5.645,26.936,3h10.123   c0.329,2.617,2.027,4.875,4.513,5.903c0.97,0.402,2.007,0.587,3.047,0.556l0.293,3.521C41.098,10.38,36.667,9,32,9   c-9.285,0-17.773,5.732-21.283,14.299c-0.782,0.373-1.371,1.071-1.602,1.921C8.77,25.081,8.395,25,8,25   c-0.408,0-0.796,0.083-1.15,0.231C7.726,24.486,8.443,23.542,8.904,22.429z M3,26.941c0.993-0.125,1.934-0.449,2.776-0.937   C5.299,26.536,5,27.231,5,28l0,3.557C4.41,31.212,3.732,31,3,31V26.941z M3,40.343V33c1.103,0,2,0.897,2,2v4h2v-4h0.001L7,28   c0-0.552,0.449-1,1-1s1,0.448,1,1v11h2V26c0-0.552,0.449-1,1-1s1,0.448,1,1v13h2V28c0-0.552,0.449-1,1-1s1,0.448,1,1v11h2v-7   c0-0.552,0.449-1,1-1s1,0.448,1,1v8.343c0,3.248-1.226,6.302-3.441,8.657H6.441C4.226,46.645,3,43.591,3,40.343z M6.087,61L6.92,51   h10.16l0.833,10H6.087z M55.096,41.571c-1.02,2.466-0.635,5.24,0.992,7.354l-7.159,7.158c-2.081-1.617-4.875-2.014-7.358-0.986   C39.1,56.118,37.408,58.355,37.064,61H26.942c-0.329-2.618-2.027-4.876-4.513-5.903c-0.971-0.402-2.008-0.588-3.047-0.557   l-0.293-3.52C22.902,53.62,27.332,55,32,55c9.285,0,17.774-5.732,21.283-14.299c0.782-0.373,1.371-1.071,1.602-1.921   C55.23,38.919,55.605,39,56,39c0.408,0,0.796-0.083,1.15-0.231C56.274,39.514,55.557,40.458,55.096,41.571z M58.224,37.995   C58.701,37.464,59,36.769,59,36v-1.184C59.314,34.928,59.648,35,60,35s0.686-0.072,1-0.184v2.243   C60.007,37.184,59.066,37.508,58.224,37.995z M60,33c-0.551,0-1-0.448-1-1v-7h-2v11c0,0.552-0.449,1-1,1s-1-0.448-1-1V25h-2v13   c0,0.552-0.449,1-1,1s-1-0.448-1-1V25h-2v11c0,0.552-0.449,1-1,1s-1-0.448-1-1l0.001-7H47v-4h-2v4c0,1.103-0.897,2-2,2v-7.343   c0-3.248,1.226-6.302,3.441-8.657h11.117C59.774,17.355,61,20.409,61,23.657V32C61,32.552,60.551,33,60,33z"/></g><text x="0" y="79" fill="#000000" font-size="5px" font-weight="bold" font-family="'Helvetica Neue', Helvetica, Arial-Unicode, Arial, Sans-serif"></text><text x="0" y="84" fill="#000000" font-size="5px" font-weight="bold" font-family="'Helvetica Neue', Helvetica, Arial-Unicode, Arial, Sans-serif"></text></svg>